<?xml version="1.0" standalone="no"?>
<!DOCTYPE svg PUBLIC "-//W3C//DTD SVG 20010904//EN"
 "http://www.w3.org/TR/2001/REC-SVG-20010904/DTD/svg10.dtd">
<svg version="1.0" xmlns="http://www.w3.org/2000/svg"
 width="349.000000pt" height="460.000000pt" viewBox="0 0 349.000000 460.000000"
 preserveAspectRatio="xMidYMid meet">

<g transform="translate(0.000000,460.000000) scale(0.100000,-0.100000)"
fill="#000000" stroke="none">
<path d="M1819 4213 c-13 -15 -93 -54 -106 -52 -23 4 -38 -7 -103 -73 -81 -83
-94 -104 -124 -213 -19 -71 -21 -93 -15 -195 4 -63 3 -158 -2 -210 -11 -122
-11 -216 0 -238 4 -9 21 -44 35 -77 71 -157 227 -375 267 -375 7 0 10 -3 7 -6
-4 -3 3 -15 13 -25 16 -16 27 -19 52 -13 18 4 37 9 44 10 68 13 173 62 173 81
0 11 7 14 24 9 18 -4 26 -1 31 11 3 10 23 30 45 45 22 15 40 35 40 43 0 8 4
15 10 15 5 0 9 3 8 8 -1 4 5 21 14 37 13 25 34 88 84 253 2 8 13 16 24 19 23
6 26 19 8 27 -9 3 -8 8 5 16 15 10 16 14 6 27 -11 12 -10 17 4 24 14 8 17 25
17 90 0 44 -5 90 -12 102 -6 12 -10 49 -9 84 3 90 -17 214 -42 255 -51 84 -79
119 -111 140 -181 123 -223 148 -247 148 -14 0 -37 10 -50 23 -29 26 -73 31
-90 10z m243 -261 c68 -40 110 -97 104 -140 -5 -38 15 -93 59 -161 23 -38 24
-43 10 -57 -15 -16 -14 -62 3 -73 19 -13 20 -39 2 -44 -12 -3 -21 -18 -25 -41
-4 -20 -11 -36 -16 -36 -5 0 -6 -6 -4 -13 4 -9 -5 -12 -32 -11 -21 1 -41 -3
-45 -9 -6 -9 -11 -8 -17 3 -6 8 -13 11 -17 8 -3 -4 -24 2 -45 12 -50 26 -52
25 -44 -8 5 -25 3 -29 -15 -27 -33 2 -45 21 -33 48 13 29 0 57 -24 51 -10 -3
-27 1 -38 9 -16 12 -25 13 -56 2 -21 -8 -40 -11 -43 -8 -3 4 -6 2 -6 -4 0 -6
-10 -8 -23 -6 -13 3 -29 -2 -35 -10 -7 -8 -22 -13 -32 -10 -13 4 -20 0 -20 -9
0 -7 -20 -34 -45 -58 -35 -35 -45 -51 -45 -77 0 -18 -2 -33 -4 -33 -2 0 -11
-3 -20 -6 -11 -4 -16 -1 -16 10 0 9 -7 16 -15 16 -8 0 -14 3 -13 8 1 4 -6 25
-16 47 -22 49 -16 163 14 308 11 51 20 101 20 112 0 29 49 149 74 180 19 23
31 28 86 32 36 2 79 8 95 13 17 4 75 9 130 9 92 1 104 -2 147 -27z m208 -498
c0 -14 -3 -14 -15 -4 -8 7 -15 14 -15 16 0 2 7 4 15 4 8 0 15 -7 15 -16z
m-565 -64 c11 -18 -6 -50 -26 -50 -21 0 -24 12 -9 41 12 21 25 25 35 9z m180
-140 c5 -8 -101 -17 -137 -11 -4 0 -15 -11 -25 -25 -16 -25 -16 -27 2 -40 10
-8 25 -14 32 -14 21 0 15 -18 -9 -32 -13 -7 -26 -12 -30 -13 -3 0 -10 -3 -14
-7 -14 -15 -24 -8 -24 16 0 14 -4 28 -10 31 -19 12 -11 54 13 67 61 35 187 52
202 28z m-295 -25 c0 -8 -4 -15 -9 -15 -13 0 -22 16 -14 24 11 11 23 6 23 -9z
m410 -19 c0 -13 -6 -26 -14 -29 -8 -3 -16 -18 -18 -33 -2 -23 -8 -28 -28 -27
-14 0 -33 4 -42 8 -22 9 -25 40 -3 31 8 -3 14 0 12 7 -1 6 8 13 21 15 12 2 30
14 38 28 21 31 34 31 34 0z m-180 -97 c-7 -11 -14 -19 -16 -16 -7 7 7 37 17
37 6 0 5 -9 -1 -21z"/>
<path d="M1903 3764 c-29 -7 -59 -52 -44 -67 6 -6 11 -30 11 -53 0 -64 28 -80
155 -82 85 -2 105 0 133 18 35 22 41 49 20 97 -29 63 -74 86 -173 89 -44 1
-90 0 -102 -2z"/>
<path d="M1604 3750 c-17 -6 -39 -19 -48 -29 -22 -24 -34 -105 -17 -115 6 -4
11 -18 11 -30 0 -20 6 -24 47 -29 26 -3 71 0 100 6 59 12 75 34 87 117 10 67
-6 83 -85 86 -35 2 -78 -1 -95 -6z"/>
<path d="M1810 3700 c0 -5 5 -10 10 -10 6 0 10 5 10 10 0 6 -4 10 -10 10 -5 0
-10 -4 -10 -10z"/>
<path d="M1912 3491 c4 -13 18 -16 19 -4 0 4 -5 9 -11 12 -7 2 -11 -2 -8 -8z"/>
<path d="M2241 2867 c-12 -23 -16 -34 -8 -25 8 10 17 16 20 13 4 -3 5 -2 2 2
-3 3 2 14 11 24 8 9 11 20 6 23 -5 3 -19 -14 -31 -37z"/>
<path d="M2320 2873 c-21 -8 -85 -60 -250 -204 -171 -149 -350 -274 -379 -264
-27 8 -45 98 -35 168 4 29 7 55 6 60 -1 4 2 26 8 50 5 24 7 52 4 64 -5 18 -10
20 -35 13 -16 -5 -44 -18 -62 -28 -40 -25 -169 -69 -256 -87 -37 -8 -88 -23
-115 -34 -26 -12 -57 -21 -68 -21 -11 0 -35 -17 -54 -37 -19 -21 -47 -51 -63
-68 -41 -44 -134 -182 -169 -251 -17 -32 -46 -86 -66 -118 -20 -33 -45 -85
-57 -115 -11 -30 -49 -96 -85 -147 -74 -107 -82 -124 -61 -124 40 0 289 -155
302 -189 4 -9 0 -11 -11 -7 -12 5 -15 2 -10 -10 4 -11 -1 -18 -14 -21 -11 -3
-20 -9 -20 -14 0 -5 -6 -9 -14 -9 -7 0 -21 -12 -31 -26 -9 -14 -19 -23 -22
-20 -3 3 -14 -4 -25 -16 l-18 -21 -23 20 c-33 31 -61 43 -85 36 -30 -8 -31
-53 -1 -53 16 0 20 -5 16 -19 -3 -12 1 -22 11 -26 12 -4 13 -8 4 -17 -20 -20
-14 -27 35 -33 27 -4 53 -12 58 -19 6 -6 22 -17 38 -23 15 -7 27 -19 27 -28 0
-8 5 -15 10 -15 6 0 19 -9 30 -20 15 -15 18 -25 10 -44 -13 -36 -43 -49 -62
-27 -16 19 -90 20 -96 1 -2 -5 -8 -10 -14 -10 -6 0 -5 6 2 15 18 22 5 30 -25
17 -29 -13 -32 -6 -9 26 14 20 14 22 0 22 -9 0 -16 -7 -16 -16 0 -13 -3 -14
-14 -5 -12 10 -17 8 -25 -7 -12 -23 -43 -38 -35 -18 3 8 -4 16 -15 19 -12 3
-19 1 -15 -4 3 -5 -1 -9 -8 -9 -8 0 -14 8 -14 19 0 10 7 18 16 17 8 -1 19 9
25 22 5 12 15 20 21 18 6 -2 11 1 11 7 -1 33 5 45 25 56 14 7 16 9 5 6 -10 -3
-25 -5 -34 -5 -9 0 -13 -6 -10 -14 4 -10 1 -13 -7 -10 -8 3 -17 1 -21 -5 -3
-6 -11 -11 -16 -11 -6 0 -7 5 -4 10 3 6 2 10 -4 10 -5 0 -12 -8 -14 -17 -4
-16 -5 -16 -6 1 -1 14 -6 17 -26 12 -20 -5 -25 -3 -25 13 0 11 -6 22 -12 24
-10 4 -10 6 0 6 19 1 42 27 42 46 0 8 -10 20 -22 25 -13 5 -17 9 -10 9 7 1 11
5 8 10 -3 5 0 22 7 38 9 22 18 29 34 27 12 -2 24 3 27 13 9 22 3 25 -28 14
-31 -13 -32 -6 -5 38 11 18 18 35 16 38 -8 8 -48 -70 -43 -83 3 -8 -1 -14 -9
-14 -7 0 -17 -10 -20 -22 -4 -13 -15 -41 -25 -63 -20 -42 -26 -85 -35 -225 -5
-77 -4 -82 8 -55 l14 30 5 -27 c3 -15 0 -29 -5 -31 -6 -2 12 -14 39 -27 27
-12 43 -25 37 -27 -7 -3 -13 -11 -13 -20 0 -13 2 -12 15 1 9 8 21 13 28 11 7
-2 24 -6 39 -9 16 -4 28 -11 28 -16 0 -6 -5 -9 -11 -8 -6 2 -14 -3 -16 -9 -7
-20 29 -15 55 6 12 11 22 24 22 31 0 17 25 6 26 -11 0 -8 -4 -27 -8 -43 -5
-21 -4 -32 5 -38 17 -11 10 -10 -52 7 -30 8 -58 12 -63 9 -5 -3 -15 -1 -22 5
-10 9 -15 7 -19 -9 -3 -11 -13 -23 -24 -27 -10 -3 -21 -11 -25 -16 -3 -6 -18
-1 -34 12 -41 32 -56 13 -45 -57 10 -68 41 -102 90 -102 20 0 85 -15 146 -34
179 -56 244 -75 306 -88 33 -7 59 -17 59 -23 0 -5 -9 -91 -20 -190 -16 -152
-32 -244 -65 -392 l-5 -23 1031 0 1031 0 -6 158 c-4 86 -8 231 -9 322 -2 151
0 169 21 218 15 37 22 73 22 120 1 37 10 103 21 147 11 44 24 105 29 135 4 30
14 93 23 140 30 166 37 218 37 283 0 36 4 69 10 72 5 3 7 25 3 50 -4 29 -1 50
7 60 7 8 10 25 7 36 -3 13 5 49 19 82 27 69 30 96 11 135 -7 15 -15 58 -16 96
-4 126 -66 460 -95 520 -34 70 -108 152 -155 173 -40 17 -225 71 -286 83 -22
4 -67 15 -100 25 -68 20 -123 27 -145 18z m63 -1067 c43 -14 105 -40 139 -57
71 -36 169 -124 161 -145 -3 -8 5 -17 21 -24 31 -11 35 -51 9 -77 -10 -10 -18
-24 -18 -32 0 -8 -9 -19 -20 -25 -11 -6 -24 -15 -28 -21 -5 -6 -7 -3 -4 6 3 9
1 21 -5 27 -12 12 -38 5 -38 -10 0 -6 7 -8 15 -4 9 3 15 0 15 -9 0 -17 -41
-20 -57 -4 -23 23 -88 -13 -88 -50 0 -9 -4 -15 -10 -14 -5 0 -16 -6 -24 -14
-11 -12 -11 -14 0 -12 24 3 39 -1 39 -10 0 -4 -22 -8 -50 -8 -27 1 -50 4 -50
9 0 4 -4 8 -9 8 -5 0 -8 -11 -8 -25 0 -14 3 -28 8 -31 15 -9 10 -34 -6 -34 -8
0 -15 -6 -15 -14 0 -14 -27 -31 -44 -27 -14 3 -36 -21 -34 -38 2 -10 -5 -17
-21 -19 -16 -3 -28 -15 -40 -43 -9 -21 -22 -39 -29 -39 -7 0 -17 -11 -22 -25
-5 -14 -15 -25 -21 -25 -6 0 -9 -7 -5 -15 3 -10 -1 -15 -13 -15 -18 0 -71 -45
-71 -61 0 -5 -5 -8 -12 -6 -7 1 -17 -13 -23 -32 -7 -18 -22 -41 -34 -50 -16
-12 -20 -22 -15 -36 7 -18 6 -18 -9 -7 -18 15 -85 20 -105 8 -7 -4 -16 -5 -19
-2 -10 10 -53 -62 -47 -78 3 -9 1 -16 -5 -16 -6 0 -11 12 -11 28 l-1 27 -15
-27 c-8 -16 -19 -28 -25 -28 -11 0 -32 50 -25 58 3 3 8 -3 12 -12 3 -9 11 -16
16 -16 6 0 3 11 -6 25 -9 14 -15 29 -12 33 3 4 1 14 -5 22 -7 13 -9 12 -9 -2
0 -22 -9 -23 -24 -4 -17 21 -66 30 -66 11 0 -27 -21 -16 -36 20 -12 29 -19 35
-44 35 -23 0 -30 5 -30 19 0 24 -17 37 -56 43 -23 3 -35 -1 -43 -14 -15 -25
-15 -46 1 -30 12 12 22 -1 47 -55 12 -26 28 -37 36 -23 9 15 25 12 25 -5 0 -8
-7 -15 -16 -15 -14 0 -14 -3 -4 -15 7 -8 9 -15 5 -15 -16 0 -75 33 -75 42 0 6
-14 8 -30 6 -23 -3 -29 -1 -28 10 2 8 -3 17 -10 19 -8 3 -10 -1 -6 -11 5 -12
2 -15 -12 -10 -20 7 -44 32 -44 46 0 5 12 5 27 2 l27 -7 -27 28 c-14 16 -24
32 -21 37 3 4 1 8 -5 8 -5 0 -12 -6 -14 -12 -4 -10 -8 -9 -16 2 -6 9 -11 10
-11 3 0 -6 6 -18 14 -26 11 -11 12 -17 3 -26 -8 -8 -8 -11 1 -11 7 0 12 -9 12
-20 0 -11 16 -31 38 -46 20 -14 28 -23 17 -19 -11 4 -28 10 -37 12 -10 3 -18
10 -18 16 0 5 -10 19 -22 31 -13 12 -24 35 -26 51 -3 34 -25 55 -57 55 -18 0
-45 33 -45 55 0 12 29 3 44 -14 10 -11 24 -17 32 -14 8 3 14 0 14 -6 0 -7 10
-5 26 5 15 11 21 20 14 24 -6 4 -8 15 -3 26 6 17 5 17 -10 5 -14 -11 -18 -11
-23 3 -3 9 -17 16 -30 16 -13 0 -24 6 -24 13 0 7 -10 17 -22 22 -13 6 -23 16
-23 23 0 8 -7 19 -16 25 -9 7 -21 29 -28 50 -7 20 -17 37 -22 37 -6 0 -7 -4
-4 -10 3 -5 -1 -10 -9 -10 -8 0 -19 6 -23 13 -4 6 -16 18 -26 26 -16 13 -17
12 -7 -13 14 -38 13 -40 -12 -16 -21 20 -23 20 -35 4 -7 -10 -13 -12 -13 -6 0
7 -6 12 -14 12 -14 0 -56 58 -56 77 0 6 11 27 25 47 13 20 22 36 20 36 -3 0 4
15 14 33 17 31 67 71 125 102 32 17 76 10 76 -11 0 -8 5 -14 11 -14 5 0 7 6 4
13 -4 6 0 4 9 -7 8 -10 19 -15 25 -12 5 4 12 2 16 -4 3 -5 14 -10 24 -10 10 0
32 -7 50 -16 18 -9 67 -18 109 -21 64 -4 92 -1 167 21 50 15 116 29 149 31 40
3 74 13 110 33 44 25 52 34 58 68 9 57 46 145 71 172 77 83 281 105 450 48z
m147 -426 c0 -11 -4 -20 -10 -20 -5 0 -7 6 -4 14 3 8 -2 16 -13 19 -14 4 -14
5 5 6 16 1 22 -5 22 -19z m40 -8 c0 -13 -12 -22 -22 -16 -10 6 -1 24 13 24 5
0 9 -4 9 -8z m30 -18 c0 -8 -4 -12 -10 -9 -5 3 -10 10 -10 16 0 5 5 9 10 9 6
0 10 -7 10 -16z m-167 -58 c15 -12 24 -46 12 -46 -15 0 -55 34 -55 46 0 18 20
17 43 0z m107 10 c0 -3 -4 -8 -10 -11 -5 -3 -10 -1 -10 4 0 6 5 11 10 11 6 0
10 -2 10 -4z m-2020 -86 c-19 -12 -30 -12 -30 -1 0 10 31 20 40 14 2 -2 -2 -8
-10 -13z m1870 0 c0 -5 -4 -10 -10 -10 -5 0 -10 5 -10 10 0 6 5 10 10 10 6 0
10 -4 10 -10z m-30 -25 c0 -8 -4 -15 -10 -15 -5 0 -10 7 -10 15 0 8 5 15 10
15 6 0 10 -7 10 -15z m-30 -35 c0 -5 -2 -10 -4 -10 -3 0 -8 5 -11 10 -3 6 -1
10 4 10 6 0 11 -4 11 -10z m-60 -40 c8 -5 11 -10 5 -10 -5 0 -17 5 -25 10 -8
5 -10 10 -5 10 6 0 17 -5 25 -10z m-1366 -69 c-4 -9 -6 -24 -6 -33 0 -10 -3
-20 -9 -23 -5 -3 -6 2 -3 12 4 15 3 15 -10 -2 -47 -62 -45 -61 -55 -46 -7 10
-13 11 -31 1 -17 -9 -29 -9 -47 -1 -32 15 -60 14 -66 -1 -2 -7 -7 -10 -11 -7
-12 11 31 49 63 55 17 4 31 10 31 15 0 5 7 9 15 9 8 0 15 -6 15 -12 0 -7 10
-1 23 14 24 28 33 32 73 34 20 2 24 -2 18 -15z m53 -63 c-3 -8 -6 -5 -6 6 -1
11 2 17 5 13 3 -3 4 -12 1 -19z m5 -40 c-7 -7 -12 -8 -12 -2 0 14 12 26 19 19
2 -3 -1 -11 -7 -17z m1148 6 c0 -8 -5 -12 -10 -9 -6 4 -8 11 -5 16 9 14 15 11
15 -7z m-615 -104 c3 -5 1 -10 -4 -10 -6 0 -11 5 -11 10 0 6 2 10 4 10 3 0 8
-4 11 -10z m61 -85 c1 -8 -2 -15 -7 -15 -5 0 -9 10 -9 22 0 23 12 17 16 -7z"/>
<path d="M1371 914 c0 -11 3 -14 6 -6 3 7 2 16 -1 19 -3 4 -6 -2 -5 -13z"/>
<path d="M1395 840 c-3 -5 1 -10 10 -10 9 0 13 5 10 10 -3 6 -8 10 -10 10 -2
0 -7 -4 -10 -10z"/>
<path d="M1790 809 c0 -5 5 -7 10 -4 6 3 10 8 10 11 0 2 -4 4 -10 4 -5 0 -10
-5 -10 -11z"/>
<path d="M830 1009 c0 -5 5 -7 10 -4 6 3 10 8 10 11 0 2 -4 4 -10 4 -5 0 -10
-5 -10 -11z"/>
<path d="M540 1446 c0 -2 7 -6 15 -10 8 -3 15 -1 15 4 0 6 -7 10 -15 10 -8 0
-15 -2 -15 -4z"/>
</g>
</svg>
